<?xml version="1.0" encoding="UTF-8"?>
<svg version="1.1" xmlns="http://www.w3.org/2000/svg" width="320" height="320">
<path d="M0 0 C1.18770996 0.30599121 1.18770996 0.30599121 2.39941406 0.61816406 C44.19847609 11.63310676 80.53532686 37.38251995 102.54101562 74.86499023 C110.8989313 89.51803959 116.79290552 104.67009298 121 121 C121.18079102 121.68094727 121.36158203 122.36189453 121.54785156 123.06347656 C126.90110245 144.25298457 126.6002956 171.9065515 121 193 C120.69400879 194.18770996 120.69400879 194.18770996 120.38183594 195.39941406 C109.36689324 237.19847609 83.61748005 273.53532686 46.13500977 295.54101562 C31.48196041 303.8989313 16.32990702 309.79290552 0 314 C-1.0214209 314.27118652 -1.0214209 314.27118652 -2.06347656 314.54785156 C-23.25298457 319.90110245 -50.9065515 319.6002956 -72 314 C-73.18770996 313.69400879 -73.18770996 313.69400879 -74.39941406 313.38183594 C-116.19847609 302.36689324 -152.53532686 276.61748005 -174.54101562 239.13500977 C-182.8989313 224.48196041 -188.79290552 209.32990702 -193 193 C-193.18079102 192.31905273 -193.36158203 191.63810547 -193.54785156 190.93652344 C-198.90110245 169.74701543 -198.6002956 142.0934485 -193 121 C-192.69400879 119.81229004 -192.69400879 119.81229004 -192.38183594 118.60058594 C-181.36689324 76.80152391 -155.61748005 40.46467314 -118.13500977 18.45898438 C-103.48196041 10.1010687 -88.32990702 4.20709448 -72 0 C-71.31905273 -0.18079102 -70.63810547 -0.36158203 -69.93652344 -0.54785156 C-48.74701543 -5.90110245 -21.0934485 -5.6002956 0 0 Z " fill="#5F3C24" transform="translate(196,3)"/>
<path d="M0 0 C3.4484575 1.14948583 4.5260711 2.73775439 6.74609375 5.5078125 C9.64023981 8.95193647 12.85435464 10.45743428 17 12 C18.155 12.515625 19.31 13.03125 20.5 13.5625 C34.3619993 19.25582114 53.66868301 17.62918041 67.49609375 12.51171875 C72.21761588 10.47467409 76.90903096 8.4095716 81.5234375 6.13671875 C84 5 84 5 86 5 C85.97679687 5.68707031 85.95359375 6.37414062 85.9296875 7.08203125 C85.91164063 7.98308594 85.89359375 8.88414062 85.875 9.8125 C85.85179687 10.70582031 85.82859375 11.59914062 85.8046875 12.51953125 C85.81714173 15.25402714 85.81714173 15.25402714 88 18 C91.56769552 18.73606499 91.56769552 18.73606499 95 19 C95.495 20.485 95.495 20.485 96 22 C94.515 22.495 94.515 22.495 93 23 C94.11561881 25.51014232 95.24421627 27.28121873 97.0625 29.375 C99.34639758 32.46931285 99.706497 34.18446098 100 38 C100.07476562 38.72832031 100.14953125 39.45664063 100.2265625 40.20703125 C100.48752947 44.34816506 100.46107971 46.35160666 98 49.8125 C83.34590802 60.4977754 63.87589059 60.18706212 46.42626953 60.18530273 C44.03269134 60.18747039 41.6395897 60.20562903 39.24609375 60.22460938 C31.2017601 60.25444054 23.27043456 59.98082266 15.26953125 59.109375 C14.54576294 59.03111984 13.82199463 58.95286469 13.07629395 58.87223816 C4.19260025 57.80193781 -6.66505543 55.93286796 -12.8125 48.9375 C-14.82792354 43.95197861 -14.93200403 38.88620603 -13.2734375 33.75 C-11.22060116 29.34391224 -8.61681338 26.21494523 -5 23 C-2.9754262 24.93254772 -1.57894208 26.63158688 0 29 C0 30.32 0 31.64 0 33 C0.66 33 1.32 33 2 33 C3.21354973 34.50503962 4.37057759 36.05584346 5.5 37.625 C12.58911201 46.70471411 22.69153497 51.42400365 34 53 C47.26189882 53.9562362 58.52781199 51.26629544 71 47 C71 46.34 71 45.68 71 45 C72.3729356 43.86175425 73.80004381 42.78835572 75.25 41.75 C79.19067304 38.79913495 81.46436715 36.15843788 84 32 C84.66 32 85.32 32 86 32 C86 29.36 86 26.72 86 24 C84.06890419 23.95710245 84.06890419 23.95710245 82 25 C81.26652123 26.66699721 80.54151393 28.33874184 79.87890625 30.03515625 C76.14811902 38.37553838 68.94358115 41.40056479 61 45 C59.989375 45.53109375 58.97875 46.0621875 57.9375 46.609375 C49.73010294 50.49479169 36.85447336 50.57320086 28.125 47.875 C26.73080239 47.29408433 25.35591016 46.66540036 24 46 C22.64648438 45.37931641 22.64648438 45.37931641 21.265625 44.74609375 C11.24332453 39.77557446 5.62379621 33.07338643 1.08984375 22.875 C-1.34138715 15.63352945 -0.42812083 7.50797079 0 0 Z " fill="#623F26" transform="translate(111,122)"/>
<path d="M0 0 C2.97 0.33 5.94 0.66 9 1 C9.33 1.99 9.66 2.98 10 4 C10.86625 4.433125 10.86625 4.433125 11.75 4.875 C18.9498714 8.4749357 22.23892461 15.77615925 25 23 C26.93826451 31.24910678 27.31020109 39.55563707 27 48 C24.525 48.495 24.525 48.495 22 49 C21.93268677 48.16976318 21.93268677 48.16976318 21.86401367 47.32275391 C20.83609636 27.84360907 20.83609636 27.84360907 12 11 C9.12925477 9.01701464 6.17500163 7.4387807 3 6 C0.18935915 17.34294342 -0.73941394 28.40287919 5 39 C7.57789484 42.24389886 10.26673962 45.13336981 14 47 C13.13744068 40.11239948 11.78857848 34.79405489 7.92578125 28.97265625 C7 27 7 27 7.35546875 24.74609375 C7.56816406 24.16988281 7.78085938 23.59367187 8 23 C10.25 22.9375 10.25 22.9375 13 24 C14.85814645 26.80021371 15.90361456 29.8373497 17 33 C17.30164063 33.81855469 17.60328125 34.63710938 17.9140625 35.48046875 C20.54574184 43.60916053 20.28579295 51.56381557 20 60 C20.87398437 59.94779297 20.87398437 59.94779297 21.765625 59.89453125 C33.89959157 59.49388141 43.27821923 62.76964333 53 70 C55 72 55 72 55.5 75.6875 C55.37292431 80.06366917 53.83319772 82.37621312 50.83203125 85.46875 C38.68534446 95.62120463 21.81833024 95.76819147 6.875 94.796875 C2.4131665 94.17113006 -0.4281974 93.1161001 -3.625 89.875 C-5.54723608 87.24830809 -6.42515749 85.1911859 -6.625 81.9375 C-5.91475986 77.46298713 -5.03888015 75.35056017 -2 72 C2.95374427 69.23733492 7.44864865 68.48696064 13 68 C13 67.01 13 66.02 13 65 C-0.49767202 66.69667515 -0.49767202 66.69667515 -10.83203125 74.90234375 C-12.98014924 78.76033492 -13.31161789 82.64476897 -13 87 C-11.05512641 92.14819479 -6.62842973 95.78517954 -1.67578125 98.07421875 C11.53387527 102.64456706 29.04472102 103.3750325 41.80859375 97.2265625 C49.01148207 93.68166026 49.01148207 93.68166026 55.2578125 88.7421875 C55.83273438 88.16726562 56.40765625 87.59234375 57 87 C57.99 87 58.98 87 60 87 C59.72482232 91.67802059 57.66806114 93.74638753 54.47265625 96.86328125 C53 98 53 98 51 98 C51 98.66 51 99.32 51 100 C48.79388434 100.81898266 46.5854166 101.63027543 44.375 102.4375 C43.14523438 102.88996094 41.91546875 103.34242187 40.6484375 103.80859375 C33.26950494 106.21820235 26.06799656 106.24700911 18.375 106.3125 C17.26253906 106.34150391 16.15007812 106.37050781 15.00390625 106.40039062 C4.19920225 106.48214915 -6.4042547 104.24397222 -14.46484375 96.61328125 C-18.41749468 92.0912734 -18.63617271 87.79276285 -18.34375 81.9296875 C-17.47494167 74.52507103 -15.18448915 70.23257606 -9.29296875 65.54296875 C-1.44841801 60.26426766 5.68104114 59.42356955 15 60 C15 57.03 15 54.06 15 51 C14.175 51.165 13.35 51.33 12.5 51.5 C6.94305737 50.70615105 4.48425293 47.17557295 1 43 C0.3915625 42.34515625 -0.216875 41.6903125 -0.84375 41.015625 C-6.9004624 33.18760992 -6.04846155 22.93358816 -5.33349609 13.51904297 C-4.66519178 8.47104594 -2.83951254 4.23898658 0 0 Z " fill="#DEB98D" transform="translate(134,22)"/>
<path d="M0 0 C-0.57871542 3.9063291 -2.5687001 5.97929406 -5 9 C-7.66933955 13.67134422 -7.54316014 18.76669515 -7 24 C-5.67305314 27.46480569 -4.59380061 28.6140296 -1.5 30.625 C14.05801937 36.73707904 30.80345761 37.35046638 47.34204102 37.26074219 C49.69768697 37.24995334 52.05257886 37.26076106 54.40820312 37.2734375 C70.71277697 37.28850495 88.6623804 36.49636717 103 28 C106.29309119 23.06036321 105.37073376 17.98848106 104.3125 12.3125 C103.15310415 9.3864057 102.32205674 8.02191553 100.3125 5.75 C99.549375 4.8425 98.78625 3.935 98 3 C98.33 2.01 98.66 1.02 99 0 C103.78767987 0.42244234 106.79224362 2.58120701 110 6 C115.74371891 13.52679649 118.14121205 21.55249769 117 31 C115.19737892 37.71395398 111.82720989 42.2555624 106 46 C101.51963765 48.42938567 98.15184796 50 93 50 C92.67 50.99 92.34 51.98 92 53 C79.43747374 56.05053148 67.21058954 56.55875593 54.32177734 56.5559082 C51.03232271 56.56243586 47.74595099 56.61700386 44.45703125 56.67382812 C26.08750584 56.81857619 1.98972041 55.12133597 -12.7109375 42.53515625 C-17.78670479 37.00462368 -19.75644145 30.46910047 -19.54296875 23.109375 C-18.20506198 15.44769304 -14.08933949 7.43745188 -8.375 2.125 C-5.11721182 0.07380004 -3.73982809 -0.67996874 0 0 Z " fill="#DDB78B" transform="translate(105,144)"/>
<path d="M0 0 C4.15701914 1.51164333 7.38842084 3.38396731 10 7 C11.18457376 13.58096532 8.61332007 18.66329281 5 24 C1.39566292 28.34607369 -2.5573328 32.37128593 -6.49072266 36.41699219 C-8.96934599 39.0167 -11.25926272 41.76992268 -13.53515625 44.546875 C-16.32921271 47.31857901 -18.66998052 47.96526111 -22.5625 48.375 C-26 48 -26 48 -27.9375 46.4375 C-29.78750173 42.19337839 -29.44114929 38.32344787 -28 34 C-28.8971875 34.44730469 -29.794375 34.89460938 -30.71875 35.35546875 C-44.65876596 42.18257501 -56.66891263 46.4215888 -72.3125 46.5 C-73.94022339 46.50954712 -73.94022339 46.50954712 -75.60083008 46.51928711 C-92.75157613 46.24842387 -92.75157613 46.24842387 -98 41 C-98.70125 40.773125 -99.4025 40.54625 -100.125 40.3125 C-105.60103196 37.81257236 -109.79038981 33.23115603 -114 29 C-114.2485255 43.29021642 -112.38677052 54.61914824 -103.3359375 66.11328125 C-94.90935644 74.14551492 -83.83669923 77.17770487 -72.5625 77.1875 C-71.82451172 77.19974609 -71.08652344 77.21199219 -70.32617188 77.22460938 C-65.7972894 77.23668639 -62.25810978 76.70439165 -58 75 C-56.87722656 74.57203125 -55.75445312 74.1440625 -54.59765625 73.703125 C-45.96038858 70.15277851 -38.28578746 66.79714268 -34 58 C-33.5359375 56.63875 -33.5359375 56.63875 -33.0625 55.25 C-32 53 -32 53 -29.875 52.1875 C-28.946875 52.0946875 -28.946875 52.0946875 -28 52 C-27.15545644 55.37817425 -26.89155081 57.67465243 -28 61 C-28.66 61 -29.32 61 -30 61 C-30.2371875 61.73605469 -30.474375 62.47210938 -30.71875 63.23046875 C-32.1976127 66.42715672 -33.84375237 68.02278004 -36.5 70.3125 C-37.2940625 71.00988281 -38.088125 71.70726562 -38.90625 72.42578125 C-41 74 -41 74 -43 74 C-43 74.66 -43 75.32 -43 76 C-58.91965985 82.93843582 -75.19182098 86.08053794 -92 80 C-100.47878542 76.50466397 -106.5909636 71.42573886 -112 64 C-112 63.34 -112 62.68 -112 62 C-112.66 62 -113.32 62 -114 62 C-117.99338403 53.28716212 -119.32875872 45.66793161 -119.25 36.125 C-119.25773437 35.19558594 -119.26546875 34.26617187 -119.2734375 33.30859375 C-119.25581416 26.99062796 -118.46593433 21.14256539 -117 15 C-115.35 15 -113.7 15 -112 15 C-111.85304688 15.556875 -111.70609375 16.11375 -111.5546875 16.6875 C-109.52583866 23.59025006 -106.83168918 29.50876974 -100.6328125 33.5390625 C-91.16084521 38.46218227 -83.2634129 39.31908599 -72.6875 39.25 C-71.51509766 39.25773437 -70.34269531 39.26546875 -69.13476562 39.2734375 C-54.95180096 39.24176142 -41.7695511 36.85227184 -30.77734375 27.390625 C-29 26 -29 26 -27 26 C-27.30822731 16.7299283 -27.30822731 16.7299283 -30 8 C-32.00136244 6.57944932 -32.00136244 6.57944932 -34 6 C-34 4.68 -34 3.36 -34 2 C-30.32928387 2.20975521 -29.0487655 2.95463674 -26.3125 5.5 C-20.20100032 13.64866624 -21.15761917 25.78381042 -22.453125 35.34375 C-22.91634024 37.9112859 -23.41871133 40.45686208 -24 43 C-18.21737912 40.93736302 -14.93786304 38.41377311 -10.9375 33.8125 C-10.41945801 33.23314697 -9.90141602 32.65379395 -9.36767578 32.05688477 C-0.71906233 22.86665046 -0.71906233 22.86665046 3.3125 11.375 C3.209375 10.26125 3.10625 9.1475 3 8 C-0.65283747 5.56477502 -3.74968452 5.44525633 -8 6 C-9.32 6.66 -10.64 7.32 -12 8 C-12 10.97 -12 13.94 -12 17 C-10.515 17.495 -10.515 17.495 -9 18 C-9.020625 17.030625 -9.04125 16.06125 -9.0625 15.0625 C-9 12 -9 12 -8 11 C-6.33382885 10.95936168 -4.66611905 10.957279 -3 11 C-2.71219448 14.05073847 -2.57393441 16.95821528 -3 20 C-5.67198257 22.59339485 -7.46879352 22.92563109 -11.125 23.4375 C-14 23 -14 23 -15.65234375 21.33984375 C-18.19618889 16.92313871 -17.61232411 11.93151351 -17 7 C-13.78099271 -1.05507457 -7.66786677 -0.60735578 0 0 Z " fill="#DDB88C" transform="translate(225,93)"/>
<path d="M0 0 C0 0.99 0 1.98 0 3 C-0.90363281 3.26554687 -1.80726563 3.53109375 -2.73828125 3.8046875 C-3.91777344 4.15789062 -5.09726563 4.51109375 -6.3125 4.875 C-8.07013672 5.39707031 -8.07013672 5.39707031 -9.86328125 5.9296875 C-12.97128182 6.99020077 -15.21229834 7.92209247 -17.1875 10.625 C-18.3904464 14.14130486 -18.64935627 17.36919077 -18 21 C-16.02386093 24.55705033 -14.77144517 26.26601475 -11.0390625 27.8125 C0.44616084 30.63480744 13.97190694 30.15551333 25 26 C25.81082031 25.69835937 26.62164062 25.39671875 27.45703125 25.0859375 C32.39316843 23.07219 36.39163687 20.96039856 40 17 C41.03349374 14.03432231 41.60683878 11.11139658 42 8 C42.66 8 43.32 8 44 8 C44.4021875 9.1446875 44.4021875 9.1446875 44.8125 10.3125 C45.9750973 12.94364126 46.97291463 14.05737652 49 16 C51.48514759 20.16379446 51.96290931 24.08671359 51.88671875 28.88671875 C50.36610775 34.22560406 46.24123542 36.52183953 41.6640625 39.15625 C30.08559196 45.21738075 18.67539638 46.20666158 5.8125 46.3125 C4.65685547 46.34150391 3.50121094 46.37050781 2.31054688 46.40039062 C-7.75468322 46.47385946 -18.12308012 44.75164561 -26 38 C-30.45212806 32.79509666 -34.39386775 28.08961947 -34 21 C-33.34 21 -32.68 21 -32 21 C-32 18.36 -32 15.72 -32 13 C-31.34 12.67 -30.68 12.34 -30 12 C-30.06960937 12.9178125 -30.13921875 13.835625 -30.2109375 14.78125 C-30.68156302 24.35587854 -30.68156302 24.35587854 -26.1171875 32.3828125 C-16.90572977 39.41887062 -6.58961131 40.20038205 4.5 40.25 C5.62148437 40.270625 6.74296875 40.29125 7.8984375 40.3125 C16.11342133 40.3504445 24.67724661 39.80577318 32.08789062 35.89941406 C34 35 34 35 38 35 C38 34.34 38 33.68 38 33 C39.97180605 31.17641627 42.05618027 29.52997206 44.15234375 27.8515625 C46.135861 25.86385177 46.61995452 24.73874045 47 22 C43.80250004 23.85661288 40.73823427 25.85265565 37.6875 27.9375 C22.0781539 38.31797274 6.67344313 38.30121976 -11.40625 35.046875 C-17.3148744 33.32566702 -22.2254514 29.85299105 -26 25 C-27.39772713 20.44666807 -27.25190699 16.87426543 -25.9375 12.3125 C-22.24809839 6.00481337 -18.48453197 2.52005522 -11.390625 0.45703125 C-7.53311752 -0.28043341 -3.91772416 -0.18655829 0 0 Z " fill="#6D4A30" transform="translate(147,87)"/>
<path d="M0 0 C2 3 2 3 3.25 6.25 C7.2673321 13.01227076 15.35061038 15.75992989 22.59960938 17.69335938 C40.20082639 21.69643532 58.05197401 21.64991475 76 21 C77.02206543 20.96664551 78.04413086 20.93329102 79.09716797 20.89892578 C93.06322194 20.33874493 111.52650828 18.25404713 122 8 C123.18256497 6.14958295 123.18256497 6.14958295 123.8125 4.25 C124.204375 3.1775 124.59625 2.105 125 1 C125.33 1 125.66 1 126 1 C126.36078979 5.50987233 126.44740257 9.00793342 124.5625 13.1875 C113.26023155 25.59242879 95.63269058 27.94269122 79.6796875 28.83984375 C25.63948658 30.95740648 25.63948658 30.95740648 7 19 C3.44118167 15.59751219 0.22056873 11.66447027 -0.1953125 6.640625 C-0.17210938 5.85171875 -0.14890625 5.0628125 -0.125 4.25 C-0.10695313 3.45078125 -0.08890625 2.6515625 -0.0703125 1.828125 C-0.04710938 1.22484375 -0.02390625 0.6215625 0 0 Z " fill="#67432A" transform="translate(91,166)"/>
<path d="M0 0 C4.10244581 2.4392921 6.79189252 5.81317755 8.3125 10.375 C8.54231985 14.05868389 8.49765707 17.74738814 8.5 21.4375 C8.51224609 22.45650391 8.52449219 23.47550781 8.53710938 24.52539062 C8.54000977 25.98428711 8.54000977 25.98428711 8.54296875 27.47265625 C8.54707764 28.36476807 8.55118652 29.25687988 8.55541992 30.17602539 C8.3125 32.375 8.3125 32.375 6.3125 34.375 C1.75694444 33.81944444 1.75694444 33.81944444 0.3125 32.375 C0.3125 30.065 0.3125 27.755 0.3125 25.375 C-4.3075 25.375 -8.9275 25.375 -13.6875 25.375 C-13.6875 28.345 -13.6875 31.315 -13.6875 34.375 C-15.9975 34.045 -18.3075 33.715 -20.6875 33.375 C-20.89241566 29.37576688 -21.01566782 25.37789669 -21.125 21.375 C-21.18365234 20.24964844 -21.24230469 19.12429687 -21.30273438 17.96484375 C-21.4234141 12.06877736 -21.25749642 8.23328308 -17.34765625 3.625 C-12.4206485 -1.3234493 -6.56237491 -1.5261337 0 0 Z " fill="#E1BC8E" transform="translate(205.6875,229.625)"/>
<path d="M0 0 C4.86532813 2.41320275 8.93464029 4.83182109 11 10 C11.24291992 12.64135742 11.24291992 12.64135742 11.23046875 15.60546875 C11.22853516 16.67087891 11.22660156 17.73628906 11.22460938 18.83398438 C11.20624023 20.49397461 11.20624023 20.49397461 11.1875 22.1875 C11.18685547 23.30576172 11.18621094 24.42402344 11.18554688 25.57617188 C11.14028159 33.85971841 11.14028159 33.85971841 10 35 C7.5 35.125 7.5 35.125 5 35 C4 34 4 34 3.90234375 32.15234375 C3.93489583 30.1015625 3.96744792 28.05078125 4 26 C-0.95 26 -5.9 26 -11 26 C-11 28.97 -11 31.94 -11 35 C-12.99954746 35.04254356 -15.00041636 35.04080783 -17 35 C-19.52767366 32.47232634 -18.28293422 25.70467997 -18.3125 22.3125 C-18.35600586 20.67764648 -18.35600586 20.67764648 -18.40039062 19.00976562 C-18.45050596 12.67595858 -18.31988678 8.77461171 -14 4 C-9.68237959 0.27114601 -5.6385386 -1.36630049 0 0 Z " fill="#E4BF91" transform="translate(125,229)"/>
<path d="M0 0 C10.75267308 -0.38943283 19.29786955 2.4065786 29 7 C31 9 31 9 31.4375 11.375 C31 14 31 14 28.625 16.125 C27.75875 16.74375 26.8925 17.3625 26 18 C25.34 18.99 24.68 19.98 24 21 C12.82611663 25.64671923 -1.3598932 27.30259384 -13.13671875 24.1640625 C-16.34295748 22.79069776 -18.53193052 21.46806948 -21 19 C-21.4375 16.625 -21.4375 16.625 -21 14 C-17.55955173 10.45529573 -13.60539753 8.67469001 -9 7 C-7.68 7 -6.36 7 -5 7 C-3.68 9.31 -2.36 11.62 -1 14 C0.98 14 2.96 14 5 14 C5 13.34 5 12.68 5 12 C4.175 11.505 3.35 11.01 2.5 10.5 C1.675 10.005 0.85 9.51 0 9 C0 8.34 0 7.68 0 7 C5.37992836 7.33990833 9.53273547 7.68557793 14 11 C13.75 12.875 13.75 12.875 13 15 C9.44158616 17.51182154 5.98386126 17.20340484 1.75 17.125 C0.48671875 17.10695313 -0.7765625 17.08890625 -2.078125 17.0703125 C-3.04234375 17.04710938 -4.0065625 17.02390625 -5 17 C-5.28617188 16.35546875 -5.57234375 15.7109375 -5.8671875 15.046875 C-6.81418662 12.80115872 -6.81418662 12.80115872 -9.125 12.25 C-9.74375 12.1675 -10.3625 12.085 -11 12 C-9.90213575 17.40787385 -9.90213575 17.40787385 -6 21 C0.67443198 21.53215066 7.41859645 21.22444717 14 20 C14 19.34 14 18.68 14 18 C14.66 17.5875 15.32 17.175 16 16.75 C18.2608746 15.10248645 18.2608746 15.10248645 18.75 12.125 C17.90596748 8.60819782 17.48647155 8.20784896 14.625 6.25 C9.98640275 3.66468863 5.21945074 2.71660492 0 2 C0 1.34 0 0.68 0 0 Z " fill="#68462D" transform="translate(153,87)"/>
<path d="M0 0 C6.04966987 1.58443735 10.19280514 4.00294405 13.41796875 9.3515625 C19.90530534 22.55452904 19.90777507 36.69168698 18 51 C17.67 51 17.34 51 17 51 C16.98582031 50.2471875 16.97164062 49.494375 16.95703125 48.71875 C16.48444665 38.19416316 14.10574281 27.3328229 9 18 C7.68 18 6.36 18 5 18 C5.47947955 23.03453529 7.09341452 25.91261417 10 30 C11.28317892 33.84953676 11.06643637 36.94738135 11 41 C5.48385209 38.587443 1.68385461 34.1734183 -1.1171875 28.89453125 C-4.80124694 19.26334729 -3.51387843 9.45400625 0 0 Z " fill="#67442A" transform="translate(137,28)"/>
<path d="M0 0 C1.34814413 2.69628826 0.88120497 4.62447208 0.6875 7.625 C0.68106144 13.00119434 1.33120695 16.23410129 4.8828125 20.3125 C13.91346062 27.51035976 24.49768189 28.20077263 35.5 28.25 C36.62148437 28.270625 37.74296875 28.29125 38.8984375 28.3125 C47.11342133 28.3504445 55.67724661 27.80577318 63.08789062 23.89941406 C65 23 65 23 69 23 C69 22.34 69 21.68 69 21 C70.61457079 19.56418526 72.29219075 18.19855217 74 16.875 C74.928125 16.15054688 75.85625 15.42609375 76.8125 14.6796875 C77.534375 14.12539062 78.25625 13.57109375 79 13 C79.99 13.495 79.99 13.495 81 14 C81.4375 16.625 81.4375 16.625 81 20 C74.48364387 28.13049939 62.24834978 32.48691476 52.22436523 33.80151367 C47.09690554 34.25905123 41.95688849 34.27017097 36.8125 34.3125 C35.65685547 34.34150391 34.50121094 34.37050781 33.31054688 34.40039062 C23.24531678 34.47385946 12.87691988 32.75164561 5 26 C0.54787194 20.79509666 -3.39386775 16.08961947 -3 9 C-2.34 9 -1.68 9 -1 9 C-1.020625 7.700625 -1.04125 6.40125 -1.0625 5.0625 C-1.08399454 3.70834367 -1.07148199 2.35243917 -1 1 C-0.67 0.67 -0.34 0.34 0 0 Z " fill="#68442B" transform="translate(116,99)"/>
<path d="M0 0 C0.77915771 0.00410889 1.55831543 0.00821777 2.36108398 0.01245117 C3.20735352 0.01438477 4.05362305 0.01631836 4.92553711 0.01831055 C5.81047852 0.03055664 6.69541992 0.04280273 7.60717773 0.05541992 C8.49598633 0.05606445 9.38479492 0.05670898 10.30053711 0.05737305 C16.90446676 0.10270895 16.90446676 0.10270895 18.04467773 1.24291992 C18.16967773 4.24291992 18.16967773 4.24291992 18.04467773 7.24291992 C17.04467773 8.24291992 17.04467773 8.24291992 13.88452148 8.34057617 C11.95286133 8.32317383 11.95286133 8.32317383 9.98217773 8.30541992 C8.69182617 8.29639648 7.40147461 8.28737305 6.07202148 8.27807617 C5.07299805 8.26647461 4.07397461 8.25487305 3.04467773 8.24291992 C3.04467773 10.55291992 3.04467773 12.86291992 3.04467773 15.24291992 C3.89932617 15.23131836 4.75397461 15.2197168 5.63452148 15.20776367 C6.73924805 15.19874023 7.84397461 15.1897168 8.98217773 15.18041992 C10.08432617 15.16881836 11.18647461 15.1572168 12.32202148 15.14526367 C15.04467773 15.24291992 15.04467773 15.24291992 16.04467773 16.24291992 C16.04467773 18.22291992 16.04467773 20.20291992 16.04467773 22.24291992 C11.75467773 22.24291992 7.46467773 22.24291992 3.04467773 22.24291992 C3.08592773 24.01666992 3.12717773 25.79041992 3.16967773 27.61791992 C3.23999023 30.64135742 3.23999023 30.64135742 3.04467773 33.24291992 C2.38467773 33.90291992 1.72467773 34.56291992 1.04467773 35.24291992 C-0.27532227 35.24291992 -1.59532227 35.24291992 -2.95532227 35.24291992 C-5.15818078 30.83720289 -4.14117174 24.85713184 -4.140625 19.95727539 C-4.14281374 17.75151342 -4.16098086 15.54624977 -4.17993164 13.34057617 C-4.1828652 11.94344247 -4.18485025 10.54630639 -4.18579102 9.14916992 C-4.1898999 7.87364258 -4.19400879 6.59811523 -4.19824219 5.28393555 C-3.9294326 1.91881768 -3.54840306 0.44083669 0 0 Z " fill="#E0BA8D" transform="translate(152.955322265625,228.757080078125)"/>
<path d="M0 0 C0.33 0 0.66 0 1 0 C1.51318475 4.87525513 1.63797343 7.84025473 -1.5 11.75 C-8.10347093 18.55451337 -19.57888344 22.71131501 -28.98950195 23.07739258 C-31.26472094 23.09818342 -33.53733282 23.08729227 -35.8125 23.0625 C-36.99489258 23.05573242 -36.99489258 23.05573242 -38.20117188 23.04882812 C-40.13414761 23.03711312 -42.06708393 23.01917998 -44 23 C-44 22.67 -44 22.34 -44 22 C-42.85660156 21.93941406 -41.71320313 21.87882812 -40.53515625 21.81640625 C-39.04425695 21.73201572 -37.55337225 21.64736698 -36.0625 21.5625 C-35.30775391 21.52318359 -34.55300781 21.48386719 -33.77539062 21.44335938 C-30.08055813 21.55961976 -30.08055813 21.55961976 -27 20 C-27.83192871 19.97812622 -27.83192871 19.97812622 -28.68066406 19.95581055 C-31.20446242 19.88113103 -33.72696654 19.78453975 -36.25 19.6875 C-37.12269531 19.66494141 -37.99539062 19.64238281 -38.89453125 19.61914062 C-46.86520127 19.28449417 -46.86520127 19.28449417 -50 16 C-49.03707031 16.23783203 -49.03707031 16.23783203 -48.0546875 16.48046875 C-36.01905402 18.52744989 -22.26228299 17.95029819 -11 13 C-7.4705191 9.9232663 -5.40928839 7.48409944 -4 3 C-3.505 4.485 -3.505 4.485 -3 6 C-2.34 5.67 -1.68 5.34 -1 5 C-0.34444881 2.47266765 -0.34444881 2.47266765 0 0 Z " fill="#D2AE86" transform="translate(188,94)"/>
<path d="M0 0 C1.5 1.9375 1.5 1.9375 2.0625 5.125 C1.34765894 9.97003388 -0.65921656 13.03142277 -3.5 16.9375 C-5.5 14.9375 -5.5 14.9375 -5.6953125 12.5546875 C-5.66050781 11.19730469 -5.66050781 11.19730469 -5.625 9.8125 C-5.60695312 8.90242188 -5.58890625 7.99234375 -5.5703125 7.0546875 C-5.53550781 6.00667969 -5.53550781 6.00667969 -5.5 4.9375 C-7.15 5.2675 -8.8 5.5975 -10.5 5.9375 C-10.83 7.9175 -11.16 9.8975 -11.5 11.9375 C-12.82 11.6075 -14.14 11.2775 -15.5 10.9375 C-15.78781083 7.88670522 -15.91543631 4.98043605 -15.5 1.9375 C-11.44546627 -2.24373791 -5.18028295 -2.20162025 0 0 Z " fill="#64422A" transform="translate(227.5,99.0625)"/>
<path d="M0 0 C3.91441027 1.30480342 6.53969951 2.62847711 9 6 C10.15797608 12.43320046 7.37473503 17.66178277 4 23 C3.34 23.33 2.68 23.66 2 24 C1.67 23.34 1.34 22.68 1 22 C-4.445 27.445 -4.445 27.445 -10 33 C-10 29.12272777 -8.88434131 28.49971392 -6.25 25.75 C-1.7734736 20.84487001 1.65522212 17.00449299 2.4375 10.1875 C2.293125 9.135625 2.14875 8.08375 2 7 C-1.31371 4.79086 -2.3446021 4.77518447 -6.1875 4.875 C-7.53908203 4.90207031 -7.53908203 4.90207031 -8.91796875 4.9296875 C-9.94857422 4.96449219 -9.94857422 4.96449219 -11 5 C-10.67 4.34 -10.34 3.68 -10 3 C-7.03 3 -4.06 3 -1 3 C-0.67 2.01 -0.34 1.02 0 0 Z " fill="#D4B186" transform="translate(226,94)"/>
<path d="M0 0 C3.3125 2.0625 3.3125 2.0625 6 5 C6 7.31 6 9.62 6 12 C0.72 12 -4.56 12 -10 12 C-10 4 -10 4 -7.8125 1.5 C-4.68993616 -0.16536738 -3.45090781 -0.75751635 0 0 Z " fill="#704C31" transform="translate(124,236)"/>
<path d="M0 0 C3.74225404 1.1566967 5.28964665 1.79776291 7.4375 5.0625 C7.4375 7.3725 7.4375 9.6825 7.4375 12.0625 C2.1575 12.0625 -3.1225 12.0625 -8.5625 12.0625 C-8.5625 5.0625 -8.5625 5.0625 -6.5 2.0625 C-3.5625 0.0625 -3.5625 0.0625 0 0 Z " fill="#6E4B30" transform="translate(199.5625,235.9375)"/>
<path d="M0 0 C0.33 0 0.66 0 1 0 C1.061875 1.0725 1.12375 2.145 1.1875 3.25 C1.66322247 7.08050507 1.66322247 7.08050507 4.3125 9.3125 C8.27797702 11.80245069 11.03757159 13.23221429 15.765625 13.4140625 C17.09980469 13.47207031 17.09980469 13.47207031 18.4609375 13.53125 C19.38132813 13.5621875 20.30171875 13.593125 21.25 13.625 C22.65378906 13.68300781 22.65378906 13.68300781 24.0859375 13.7421875 C26.39043054 13.83624844 28.69492013 13.92189399 31 14 C30.34 14.99 29.68 15.98 29 17 C26.83276367 17.37231445 26.83276367 17.37231445 24.16796875 17.36328125 C23.20439453 17.36263672 22.24082031 17.36199219 21.24804688 17.36132812 C20.23806641 17.34521484 19.22808594 17.32910156 18.1875 17.3125 C16.68993164 17.31733398 16.68993164 17.31733398 15.16210938 17.32226562 C9.05624918 17.27751915 4.38423309 17.19091689 -0.3125 12.875 C-2.64756049 8.89674879 -2.44953984 6.57032175 -2 2 C-1.34 1.34 -0.68 0.68 0 0 Z " fill="#E4C094" transform="translate(131,99)"/>
<path d="M0 0 C5.37992836 0.33990833 9.53273547 0.68557793 14 4 C13.75 5.875 13.75 5.875 13 8 C9.44158616 10.51182154 5.98386126 10.20340484 1.75 10.125 C0.48671875 10.10695313 -0.7765625 10.08890625 -2.078125 10.0703125 C-3.04234375 10.04710938 -4.0065625 10.02390625 -5 10 C-5 9.67 -5 9.34 -5 9 C-1.7 8.34 1.6 7.68 5 7 C5 6.34 5 5.68 5 5 C3.7625 4.2575 3.7625 4.2575 2.5 3.5 C1.675 3.005 0.85 2.51 0 2 C0 1.34 0 0.68 0 0 Z " fill="#6B4B30" transform="translate(153,94)"/>
<path d="M0 0 C1.50433594 0.01353516 1.50433594 0.01353516 3.0390625 0.02734375 C3.80992187 0.03894531 4.58078125 0.05054687 5.375 0.0625 C5.705 0.7225 6.035 1.3825 6.375 2.0625 C6.045 2.7225 5.715 3.3825 5.375 4.0625 C3.44921875 4.3359375 3.44921875 4.3359375 1.0625 4.4375 C-2.37953979 4.72706843 -3.33835345 4.81995292 -6.0625 7.125 C-6.578125 7.764375 -7.09375 8.40375 -7.625 9.0625 C-8.285 9.0625 -8.945 9.0625 -9.625 9.0625 C-9.625 11.3725 -9.625 13.6825 -9.625 16.0625 C-11.625 14.0625 -11.625 14.0625 -12 10.8125 C-11.56472321 6.4597321 -10.35135704 4.43035281 -7.625 1.0625 C-4.98041621 -0.25979189 -2.94738699 -0.03427194 0 0 Z " fill="#E6C296" transform="translate(219.625,92.9375)"/>
<path d="M0 0 C0.63292969 0.16242188 1.26585937 0.32484375 1.91796875 0.4921875 C6.06641694 1.17570875 10.1157729 1.14459561 14.3125 1.125 C15.12912109 1.12886719 15.94574219 1.13273437 16.78710938 1.13671875 C21.94559135 1.12849806 26.8946038 0.74025307 32 0 C32 0.99 32 1.98 32 3 C32.66 3.33 33.32 3.66 34 4 C24.63181742 7.39925415 15.80706267 7.31042285 6 7 C6 6.67 6 6.34 6 6 C7.14339844 5.93941406 8.28679687 5.87882812 9.46484375 5.81640625 C10.95574305 5.73201572 12.44662775 5.64736698 13.9375 5.5625 C14.69224609 5.52318359 15.44699219 5.48386719 16.22460938 5.44335938 C19.91944187 5.55961976 19.91944187 5.55961976 23 4 C22.16807129 3.97812622 22.16807129 3.97812622 21.31933594 3.95581055 C18.79553758 3.88113103 16.27303346 3.78453975 13.75 3.6875 C12.87730469 3.66494141 12.00460938 3.64238281 11.10546875 3.61914062 C3.13479873 3.28449417 3.13479873 3.28449417 0 0 Z " fill="#CDA980" transform="translate(138,110)"/>
<path d="M0 0 C0 0.99 0 1.98 0 3 C-4.62 4.32 -9.24 5.64 -14 7 C-14.33 6.34 -14.66 5.68 -15 5 C-16.98 5.66 -18.96 6.32 -21 7 C-19.27190296 3.65901239 -17.28868606 2.49513156 -13.875 1.25 C-9.13516555 -0.18985119 -4.92745623 -0.23464077 0 0 Z " fill="#886547" transform="translate(147,87)"/>
<path d="M0 0 C3 1 3 1 4.6875 3.3125 C6.55187874 8.55051645 6.24047028 13.49590241 6 19 C5.67 19 5.34 19 5 19 C4.67 17.02 4.34 15.04 4 13 C3.34 13 2.68 13 2 13 C2 11.68 2 10.36 2 9 C0.02 9.99 -1.96 10.98 -4 12 C-3.25 10.0625 -3.25 10.0625 -2 8 C0.125 7.25 0.125 7.25 2 7 C2 5.35 2 3.7 2 2 C1.34 2 0.68 2 0 2 C0 1.34 0 0.68 0 0 Z " fill="#8D6A4B" transform="translate(192,100)"/>
<path d="M0 0 C1 3 1 3 1 6 C-2.3 6.66 -5.6 7.32 -9 8 C-9 7.34 -9 6.68 -9 6 C-12.3 6 -15.6 6 -19 6 C-19 5.67 -19 5.34 -19 5 C-10.585 4.01 -10.585 4.01 -2 3 C-2 2.34 -2 1.68 -2 1 C-1.34 0.67 -0.68 0.34 0 0 Z " fill="#745136" transform="translate(169,104)"/>
<path d="M0 0 C0.66 0 1.32 0 2 0 C0.69063102 2.92090003 -0.75619462 4.75619462 -3 7 C-3.9731681 9.9195043 -4.1929546 12.05444951 -4.31640625 15.10546875 C-4.37924805 16.57983398 -4.37924805 16.57983398 -4.44335938 18.08398438 C-4.48267578 19.10814453 -4.52199219 20.13230469 -4.5625 21.1875 C-4.60568359 22.22326172 -4.64886719 23.25902344 -4.69335938 24.32617188 C-4.79944366 26.8839819 -4.90150146 29.44188845 -5 32 C-5.33 32 -5.66 32 -6 32 C-6.11668214 28.12525543 -6.18741231 24.25096604 -6.25 20.375 C-6.28351563 19.28058594 -6.31703125 18.18617188 -6.3515625 17.05859375 C-6.42872162 10.69296657 -6.32063305 6.81670573 -2 2 C-1.34 1.34 -0.68 0.68 0 0 Z " fill="#CAA57C" transform="translate(113,231)"/>
<path d="M0 0 C1.2065625 0.0309375 1.2065625 0.0309375 2.4375 0.0625 C2.4375 3.0325 2.4375 6.0025 2.4375 9.0625 C1.7775 9.0625 1.1175 9.0625 0.4375 9.0625 C0.4375 6.7525 0.4375 4.4425 0.4375 2.0625 C-0.5525 2.0625 -1.5425 2.0625 -2.5625 2.0625 C-2.5625 4.0425 -2.5625 6.0225 -2.5625 8.0625 C-3.8825 7.7325 -5.2025 7.4025 -6.5625 7.0625 C-5.5725 7.0625 -4.5825 7.0625 -3.5625 7.0625 C-3.583125 6.093125 -3.60375 5.12375 -3.625 4.125 C-3.54257968 0.08640438 -3.54257968 0.08640438 0 0 Z " fill="#B89671" transform="translate(219.5625,103.9375)"/>
<path d="M0 0 C0.33 0.66 0.66 1.32 1 2 C0.67 2.99 0.34 3.98 0 5 C-2.31 5.33 -4.62 5.66 -7 6 C-7 4.68 -7 3.36 -7 2 C-4.69 1.34 -2.38 0.68 0 0 Z " fill="#E7C396" transform="translate(177,107)"/>
<path d="M0 0 C0.66 0.99 1.32 1.98 2 3 C3.65 2.67 5.3 2.34 7 2 C6.67 2.66 6.34 3.32 6 4 C2.43954823 5.18681726 -0.43808337 5.09689832 -4.1875 5.0625 C-5.45980469 5.05347656 -6.73210937 5.04445313 -8.04296875 5.03515625 C-9.50669922 5.01775391 -9.50669922 5.01775391 -11 5 C-11 4.67 -11 4.34 -11 4 C-10.28972656 3.87882812 -9.57945312 3.75765625 -8.84765625 3.6328125 C-7.92855469 3.46523437 -7.00945312 3.29765625 -6.0625 3.125 C-5.14597656 2.96257812 -4.22945312 2.80015625 -3.28515625 2.6328125 C-2.53105469 2.42398438 -1.77695313 2.21515625 -1 2 C-0.67 1.34 -0.34 0.68 0 0 Z " fill="#93704F" transform="translate(159,99)"/>
<path d="M0 0 C5.44693314 -0.09688221 10.63904667 -0.12862175 16 1 C16 1.33 16 1.66 16 2 C10.47032059 2.71033431 5.50016964 3.30267176 0 2 C0 1.34 0 0.68 0 0 Z " fill="#886445" transform="translate(153,87)"/>
<path d="M0 0 C0.66 0.33 1.32 0.66 2 1 C1.36191406 1.62648437 0.72382812 2.25296875 0.06640625 2.8984375 C-0.75988281 3.71570313 -1.58617188 4.53296875 -2.4375 5.375 C-3.26121094 6.18710938 -4.08492188 6.99921875 -4.93359375 7.8359375 C-7.03434672 9.82348515 -7.03434672 9.82348515 -8 12 C-8.66 11.67 -9.32 11.34 -10 11 C-9.09066991 9.72390677 -8.17217147 8.45434447 -7.25 7.1875 C-6.73953125 6.47980469 -6.2290625 5.77210938 -5.703125 5.04296875 C-3.97517642 2.97022309 -2.21473524 1.52624146 0 0 Z " fill="#CBA67D" transform="translate(100,144)"/>
<path d="M0 0 C1.41778293 2.83556587 0.86257622 4.9908706 0.5625 8.125 C0.46066406 9.22070312 0.35882813 10.31640625 0.25390625 11.4453125 C0.17011719 12.28835937 0.08632812 13.13140625 0 14 C-0.99 14 -1.98 14 -3 14 C-3 12.35 -3 10.7 -3 9 C-2.34 9 -1.68 9 -1 9 C-1.020625 7.700625 -1.04125 6.40125 -1.0625 5.0625 C-1.08399454 3.70834367 -1.07148199 2.35243917 -1 1 C-0.67 0.67 -0.34 0.34 0 0 Z " fill="#916F50" transform="translate(116,99)"/>
<path d="M0 0 C1.98 0.99 3.96 1.98 6 3 C5.67 3.99 5.34 4.98 5 6 C3.02 6 1.04 6 -1 6 C-1.33 5.34 -1.66 4.68 -2 4 C-1.01 4 -0.02 4 1 4 C0.67 2.68 0.34 1.36 0 0 Z " fill="#CBA781" transform="translate(153,96)"/>
<path d="M0 0 C2.83374881 3.20336822 3.5205537 5.78087253 4 10 C2.68 9.67 1.36 9.34 0 9 C0 6.03 0 3.06 0 0 Z " fill="#755337" transform="translate(212,101)"/>
<path d="M0 0 C1.94268841 2.91403262 3.46395304 5.85808576 5 9 C4.34 9 3.68 9 3 9 C2.34 9.66 1.68 10.32 1 11 C-0.20272819 8.59454362 -0.10071472 7.05003047 -0.0625 4.375 C-0.05347656 3.55773437 -0.04445313 2.74046875 -0.03515625 1.8984375 C-0.02355469 1.27195313 -0.01195313 0.64546875 0 0 Z " fill="#846042" transform="translate(91,166)"/>
<path d="M0 0 C0.66 0.33 1.32 0.66 2 1 C1.04882866 2.1725131 0.08882991 3.33787015 -0.875 4.5 C-1.40867188 5.1496875 -1.94234375 5.799375 -2.4921875 6.46875 C-2.98976562 6.9740625 -3.48734375 7.479375 -4 8 C-4.66 8 -5.32 8 -6 8 C-4.55746343 4.63408134 -2.66735273 2.48952921 0 0 Z " fill="#CEA87E" transform="translate(192,230)"/>
<path d="M0 0 C2.475 0.495 2.475 0.495 5 1 C5 1.99 5 2.98 5 4 C4.01 3.34 3.02 2.68 2 2 C2 3.65 2 5.3 2 7 C1.34 6.67 0.68 6.34 0 6 C0 4.02 0 2.04 0 0 Z " fill="#B08D6A" transform="translate(142,99)"/>
<path d="M0 0 C-2.71182212 2.60334924 -3.89133813 2.99456691 -7.75 3.1875 C-8.8225 3.125625 -9.895 3.06375 -11 3 C-7.48550811 -0.37391222 -4.73940561 -0.27342725 0 0 Z " fill="#644128" transform="translate(146,88)"/>
<path d="M0 0 C0.66 0 1.32 0 2 0 C2 2.64 2 5.28 2 8 C0.68 7.67 -0.64 7.34 -2 7 C-1.34 6.01 -0.68 5.02 0 4 C0 2.68 0 1.36 0 0 Z " fill="#EECEA1" transform="translate(218,106)"/>
<path d="M0 0 C0.66 0.33 1.32 0.66 2 1 C1.67 2.32 1.34 3.64 1 5 C-0.65 5 -2.3 5 -4 5 C-2.68 3.35 -1.36 1.7 0 0 Z " fill="#E6C296" transform="translate(184,102)"/>
<path d="M0 0 C3 1 3 1 4.1875 3.0625 C4.455625 3.701875 4.72375 4.34125 5 5 C3.68 5.33 2.36 5.66 1 6 C0.67 4.02 0.34 2.04 0 0 Z " fill="#785639" transform="translate(115,113)"/>
</svg>
